<?xml version="1.0" standalone="no"?>
<!DOCTYPE svg PUBLIC "-//W3C//DTD SVG 20010904//EN"
 "http://www.w3.org/TR/2001/REC-SVG-20010904/DTD/svg10.dtd">
<svg version="1.0" xmlns="http://www.w3.org/2000/svg"
 width="50.000000pt" height="50.000000pt" viewBox="0 0 500.000000 500.000000"
 preserveAspectRatio="xMidYMid meet">

<g transform="translate(0.000000,500.000000) scale(0.100000,-0.100000)"
fill="#000000" stroke="none">
<path d="M2253 4325 c-441 -80 -752 -306 -943 -685 -88 -176 -123 -329 -122
-540 0 -139 3 -167 31 -273 114 -445 460 -777 930 -895 94 -23 125 -26 281
-26 160 0 184 2 278 27 180 48 304 104 443 197 l56 38 214 -213 c187 -186 220
-214 259 -225 134 -36 250 50 250 184 0 32 -7 70 -15 85 -8 16 -83 94 -166
175 -130 124 -157 146 -184 146 -24 0 -42 11 -79 49 l-48 49 30 39 c35 44 102
176 127 248 50 150 68 257 68 410 1 157 -14 244 -65 390 -158 455 -538 762
-1019 825 -101 13 -239 11 -326 -5z m428 -119 c237 -57 408 -153 562 -316 72
-76 149 -185 118 -166 -18 12 -12 -22 13 -72 39 -77 92 -222 116 -318 18 -68
23 -119 24 -214 1 -282 -114 -551 -330 -772 -228 -232 -621 -359 -940 -304
-169 30 -255 56 -358 107 -133 67 -208 122 -301 221 -132 141 -217 292 -271
483 -27 92 -29 113 -28 255 1 134 5 168 28 254 69 256 211 481 398 630 164
131 351 205 613 240 74 10 255 -4 356 -28z m779 -1926 c0 -18 -26 -30 -39 -17
-11 10 -12 7 -7 -13 3 -14 3 -19 0 -12 -3 6 -12 12 -20 12 -8 0 -14 6 -14 13
0 9 11 13 30 12 22 -1 29 2 26 11 -3 8 0 11 10 7 7 -3 14 -9 14 -13z m231
-185 c68 -69 125 -128 125 -133 1 -4 -27 -34 -62 -66 l-64 -59 -59 59 c-33 32
-91 86 -130 119 -38 33 -70 62 -70 66 -1 8 120 139 128 139 4 0 64 -56 132
-125z m-301 101 c0 -2 -7 -9 -15 -16 -13 -11 -14 -10 -9 4 5 14 24 23 24 12z"/>
<path d="M2290 4156 c-193 -30 -347 -92 -504 -205 -98 -70 -143 -114 -210
-205 -197 -268 -275 -593 -202 -837 58 -197 150 -352 288 -485 226 -219 473
-325 763 -327 137 -1 285 35 443 109 369 172 591 512 592 905 0 217 -60 411
-183 593 -74 109 -258 279 -342 316 -22 9 -60 27 -85 38 -102 47 -256 79 -395
83 -53 1 -56 3 -25 9 19 4 28 8 19 9 -9 0 -29 3 -45 5 -16 3 -67 -1 -114 -8z
m300 -130 c123 -20 263 -77 370 -149 199 -135 342 -348 391 -583 54 -261 -43
-594 -237 -809 l-36 -40 3 145 c2 80 3 339 1 575 l-2 430 -133 71 c-361 195
-477 254 -504 254 -16 0 -158 -67 -338 -158 l-310 -159 -3 -581 c-1 -320 -5
-582 -10 -581 -12 0 -103 114 -154 191 -99 150 -140 296 -140 493 0 90 5 139
20 196 88 329 319 571 644 678 122 40 293 51 438 27z m-130 -274 c0 -49 5 -83
13 -91 10 -11 10 -14 0 -18 -7 -3 -13 -11 -13 -19 0 -18 23 -14 32 6 4 10 7 5
7 -13 1 -18 5 -26 12 -21 7 4 10 -14 7 -60 l-3 -66 35 -11 c19 -7 40 -16 47
-21 7 -5 17 -7 23 -3 5 3 11 1 11 -4 1 -6 2 -16 3 -23 0 -6 7 -13 14 -15 8 -3
13 10 14 44 l1 48 4 -42 c2 -24 9 -43 16 -43 7 0 1 -6 -13 -13 -17 -9 -27 -10
-32 -3 -4 6 -8 1 -8 -12 0 -23 0 -23 -21 -3 -28 26 -79 33 -87 12 -3 -9 -13
-22 -21 -29 -14 -12 -14 -13 2 -8 15 5 17 -2 17 -47 0 -29 -5 -59 -11 -67 -8
-12 -9 -10 -4 7 3 12 1 24 -5 28 -5 3 -11 0 -12 -7 0 -7 -2 -18 -2 -24 -1 -6
-6 -18 -12 -25 -7 -8 -14 -76 -16 -162 -3 -81 -8 -150 -11 -153 -3 -3 -52 -16
-108 -30 -57 -13 -182 -43 -277 -66 -94 -23 -175 -38 -179 -35 -3 4 -7 184 -7
401 l-1 394 274 136 c151 75 282 136 292 136 17 0 19 -9 19 -78z m334 -197
c-4 -8 -11 -12 -16 -9 -6 4 -5 10 3 15 19 12 19 11 13 -6z m174 -7 c9 -8 12
-63 11 -217 0 -117 -4 -197 -9 -186 -6 16 -9 12 -12 -20 -3 -28 -5 -19 -6 30
-2 67 -3 71 -33 88 -34 19 -65 22 -74 7 -3 -5 -11 -10 -17 -10 -6 0 -1 11 12
25 19 21 21 25 7 25 -19 0 -20 2 -11 23 4 12 12 13 37 6 17 -5 35 -13 41 -19
28 -28 36 -10 36 78 -1 82 -2 88 -26 106 -15 10 -36 16 -49 13 -14 -2 -22 0
-19 4 3 5 17 9 32 9 26 1 26 1 7 16 -19 15 -19 15 6 9 16 -4 30 -2 33 4 4 7
-1 11 -14 11 -12 0 -18 4 -15 10 7 11 42 4 63 -12z m-301 -40 c-3 -8 -6 -5 -6
6 -1 11 2 17 5 13 3 -3 4 -12 1 -19z m146 -101 c7 4 6 0 -2 -10 -7 -9 -14 -17
-16 -17 -1 0 -2 26 -2 58 0 53 1 53 4 9 3 -33 8 -45 16 -40z m11 68 c-4 -8 -8
-15 -10 -15 -2 0 -4 7 -4 15 0 8 4 15 10 15 5 0 7 -7 4 -15z m23 -20 c-3 -23
-17 -48 -17 -29 0 15 12 54 17 54 2 0 2 -11 0 -25z m3 -82 c0 -10 -14 -31 -30
-46 -17 -17 -27 -36 -24 -45 4 -13 3 -13 -6 1 -17 27 -78 51 -94 38 -18 -15
-28 -1 -11 15 8 8 12 21 9 29 -8 20 34 20 62 0 12 -8 24 -11 28 -8 5 6 10 -21
7 -40 -1 -5 3 -6 9 -2 5 3 10 15 10 26 0 10 5 19 10 19 6 0 10 7 10 15 0 8 5
15 10 15 6 0 10 -8 10 -17z m-170 -7 c0 -3 -4 -8 -10 -11 -5 -3 -10 -1 -10 4
0 6 5 11 10 11 6 0 10 -2 10 -4z m-96 -182 c23 -9 20 -21 -6 -27 -12 -4 -19
-9 -16 -12 3 -4 21 1 40 11 30 15 32 15 19 1 -8 -10 -9 -17 -3 -17 6 0 10 -9
9 -20 -2 -24 -1 -24 -40 -2 -18 9 -33 18 -35 19 -2 1 1 10 7 21 9 17 8 21 -7
25 -15 4 -15 5 0 6 9 0 23 -2 32 -5z m101 -44 c3 -5 1 -10 -4 -10 -6 0 -11 5
-11 10 0 6 2 10 4 10 3 0 8 -4 11 -10z m72 -22 c7 -6 16 -7 21 -4 11 7 23 -41
15 -60 -7 -19 -70 14 -77 40 -12 45 2 54 41 24z m66 -28 c3 -11 1 -18 -4 -14
-5 3 -9 12 -9 20 0 20 7 17 13 -6z m129 -53 c5 -7 7 0 4 16 -3 19 0 27 10 27
10 0 14 -13 13 -52 0 -46 -2 -50 -11 -30 -6 12 -15 22 -21 22 -5 0 -3 -8 4
-17 12 -15 12 -16 -6 -9 -11 4 -33 13 -50 19 -39 13 -42 16 -25 27 13 8 12 10
-2 10 -21 0 -24 16 -5 23 15 6 79 -20 89 -36z m-435 -49 c-3 -7 -5 -2 -5 12 0
14 2 19 5 13 2 -7 2 -19 0 -25z m330 0 c-3 -8 -6 -5 -6 6 -1 11 2 17 5 13 3
-3 4 -12 1 -19z m110 -40 c-3 -7 -5 -2 -5 12 0 14 2 19 5 13 2 -7 2 -19 0 -25z
m-120 -45 c-3 -10 -5 -4 -5 12 0 17 2 24 5 18 2 -7 2 -21 0 -30z m142 -78 c-3
-50 -2 -50 -65 -34 -31 8 -42 15 -35 22 7 7 7 15 -2 26 -10 12 -9 14 8 7 11
-5 30 -11 43 -13 20 -5 22 -1 22 32 0 33 2 35 15 21 11 -10 15 -31 14 -61z
m-162 23 c-3 -7 -5 -2 -5 12 0 14 2 19 5 13 2 -7 2 -19 0 -25z m-37 -8 c0 -5
-5 -10 -11 -10 -5 0 -7 5 -4 10 3 6 8 10 11 10 2 0 4 -4 4 -10z m-326 -62 c-1
-10 -2 -146 -3 -302 l-1 -284 -62 5 c-35 3 -65 7 -66 9 -2 1 -6 108 -9 237
l-6 234 -81 -18 c-45 -10 -117 -26 -161 -37 l-80 -19 4 -151 c1 -84 0 -152 -3
-152 -3 0 -28 14 -56 31 l-50 31 0 157 0 157 193 43 c105 24 226 51 267 61 90
22 115 21 114 -2z m-224 -378 c0 -147 -3 -180 -14 -180 -8 0 -44 9 -80 20
l-66 21 0 134 c0 153 -5 145 97 169 32 8 59 15 61 15 1 1 2 -80 2 -179z m500
164 c41 -8 79 -19 83 -23 4 -4 6 -65 5 -136 l-3 -128 -73 -25 c-40 -13 -76
-21 -80 -17 -7 6 -17 345 -10 345 1 0 37 -7 78 -16z"/>
<path d="M1646 3109 c-38 -30 -32 -63 11 -67 49 -5 73 13 73 53 0 32 -3 35
-29 35 -15 0 -40 -10 -55 -21z"/>
<path d="M3155 3100 c-8 -27 1 -39 42 -57 32 -13 37 -12 54 3 24 22 24 29 -1
54 -27 27 -86 27 -95 0z"/>
<path d="M2291 3633 c-18 -15 -23 -32 -28 -100 -7 -92 -7 -92 57 -67 l41 16
-3 82 c-3 73 -5 81 -24 84 -11 2 -30 -5 -43 -15z"/>
<path d="M2121 3551 c-12 -12 -21 -31 -22 -43 -1 -34 2 -123 5 -125 1 -2 21 5
45 14 l42 16 -3 76 c-3 70 -5 76 -25 79 -12 2 -31 -6 -42 -17z"/>
<path d="M1960 3482 c-19 -15 -23 -31 -27 -90 -5 -79 -3 -81 56 -61 30 11 31
12 31 74 0 97 -14 115 -60 77z"/>
<path d="M2503 3446 c15 -7 24 -15 21 -19 -4 -4 0 -7 9 -7 10 0 16 6 15 13 -4
15 -26 26 -53 25 -16 0 -14 -2 8 -12z"/>
<path d="M2488 3423 c7 -3 16 -2 19 1 4 3 -2 6 -13 5 -11 0 -14 -3 -6 -6z"/>
<path d="M2486 3394 c-9 -22 -8 -24 9 -18 8 4 15 12 15 20 0 19 -16 18 -24 -2z"/>
<path d="M2297 3368 c-22 -20 -26 -33 -30 -100 -2 -48 0 -78 6 -78 5 0 27 5
49 12 l39 11 -3 86 c-3 97 -16 110 -61 69z"/>
<path d="M2122 3300 c-19 -18 -22 -31 -22 -96 0 -68 2 -75 18 -69 9 3 29 9 45
12 26 5 27 7 27 73 0 38 -3 75 -6 84 -8 22 -36 20 -62 -4z"/>
<path d="M1968 3244 c-27 -14 -28 -18 -28 -94 l0 -79 38 13 37 13 0 78 c0 44
-4 80 -10 81 -5 2 -22 -4 -37 -12z"/>
<path d="M2300 3106 c-23 -13 -25 -22 -30 -95 -5 -88 -6 -87 53 -70 l38 10 -3
82 c-3 89 -11 99 -58 73z"/>
<path d="M2150 3063 c-41 -15 -50 -35 -50 -110 l0 -73 28 6 c61 15 63 19 60
101 -3 75 -9 87 -38 76z"/>
<path d="M1963 2998 c-21 -10 -23 -18 -23 -85 0 -40 4 -73 9 -73 4 0 22 5 40
11 l31 11 0 74 c0 80 -6 87 -57 62z"/>
<path d="M2720 3110 c0 -6 4 -10 9 -10 5 0 12 -8 14 -17 4 -14 5 -13 6 3 0 12
-6 24 -14 28 -8 3 -15 1 -15 -4z"/>
<path d="M4025 3121 c-21 -4 -31 -13 -33 -28 -4 -27 30 -47 64 -39 18 5 24 13
24 35 0 33 -12 40 -55 32z"/>
<path d="M3875 3111 c-32 -5 -41 -11 -43 -30 -5 -32 4 -38 70 -46 52 -7 57 -5
63 15 4 12 4 32 1 46 -7 25 -14 27 -91 15z"/>
<path d="M3872 2748 c-17 -17 -15 -73 3 -88 23 -19 49 -7 59 29 8 30 7 36 -13
52 -27 22 -33 23 -49 7z"/>
<path d="M3745 2710 c-9 -15 4 -47 22 -54 24 -10 43 14 32 42 -9 23 -43 30
-54 12z"/>
<path d="M4010 2696 c0 -10 9 -16 21 -16 24 0 21 23 -4 28 -10 2 -17 -3 -17
-12z"/>
<path d="M3840 2561 c-15 -29 -13 -39 15 -57 45 -29 90 9 65 56 -14 27 -65 27
-80 1z"/>
<path d="M3191 1694 c-32 -23 -60 -89 -52 -123 10 -37 68 -74 106 -67 35 8 81
49 89 82 8 29 -25 99 -53 114 -28 15 -63 12 -90 -6z"/>
<path d="M4258 1633 l-67 -4 -3 -116 c-3 -107 -4 -115 -19 -101 -23 23 -90 39
-130 32 -114 -22 -199 -122 -199 -235 0 -85 58 -182 131 -219 54 -28 106 -25
173 9 l57 29 9 -24 c8 -21 16 -24 65 -24 l55 0 0 330 c0 182 -1 329 -2 328 -2
-1 -33 -3 -70 -5z m-119 -314 c41 -14 51 -35 51 -104 0 -49 -4 -60 -29 -86
-65 -64 -171 -7 -171 91 0 42 15 67 53 90 37 23 52 24 96 9z"/>
<path d="M2412 1308 l3 -323 75 0 75 0 -1 60 c0 33 -2 178 -5 322 l-4 263 -73
0 -72 0 2 -322z"/>
<path d="M522 1298 l3 -313 206 -3 207 -2 4 62 c3 35 3 66 1 71 -2 4 -62 7
-134 7 l-129 0 0 245 0 245 -80 0 -80 0 2 -312z"/>
<path d="M2680 1301 c0 -170 3 -311 7 -313 4 -2 34 -2 66 0 l57 4 0 119 0 120
133 -2 132 -1 3 61 3 61 -139 0 -138 0 -1 70 -1 71 154 -3 c151 -3 155 -2 150
17 -3 11 -6 38 -6 61 l0 41 -209 2 -210 2 -1 -310z"/>
<path d="M1101 1434 c-24 -9 -65 -37 -91 -63 -80 -78 -91 -193 -27 -288 71
-105 206 -142 320 -89 88 42 147 130 147 220 0 158 -190 278 -349 220z m172
-144 c22 -25 27 -40 27 -80 0 -40 -5 -55 -27 -79 -16 -17 -37 -31 -48 -32 -83
-7 -134 30 -142 101 -5 51 21 104 60 120 39 17 99 3 130 -30z"/>
<path d="M1651 1439 c-78 -24 -134 -75 -161 -146 -24 -65 -25 -84 -4 -152 23
-78 92 -145 166 -161 32 -7 75 -10 101 -6 49 8 131 56 148 88 10 19 13 18 35
-20 42 -70 122 -92 214 -57 75 28 81 29 78 14 -2 -11 13 -15 60 -17 l64 -3 -4
175 -3 174 -31 38 c-47 58 -95 79 -184 79 -71 0 -138 -14 -170 -34 -13 -9 -13
-15 1 -53 14 -38 19 -43 45 -40 16 1 57 5 91 8 57 6 64 4 87 -19 14 -15 26
-31 26 -37 0 -6 -30 -10 -78 -10 -125 0 -201 -47 -220 -135 l-7 -35 -39 26
-38 26 -38 -21 c-68 -38 -133 -23 -165 39 -27 52 -14 109 35 147 24 19 101 16
137 -7 l33 -20 39 43 c45 48 43 53 -26 94 -49 28 -137 39 -192 22z m549 -294
c0 -15 -9 -31 -23 -40 -56 -36 -131 -26 -125 18 4 29 43 47 101 47 43 0 47 -2
47 -25z"/>
<path d="M3564 1431 c-23 -10 -45 -24 -48 -30 -12 -20 -35 -13 -29 9 4 15 0
20 -14 20 -11 0 -41 3 -67 6 l-46 7 0 -232 0 -231 65 0 65 0 1 78 c1 146 13
233 34 248 30 22 98 18 121 -7 17 -19 19 -38 19 -168 l0 -146 29 -3 c16 -2 44
-1 61 2 l32 6 8 123 c12 165 9 193 -20 243 -46 79 -135 111 -211 75z"/>
<path d="M3160 1430 c-7 -4 -10 -78 -8 -226 l3 -219 68 0 c37 0 67 3 67 8 0 4
0 106 0 228 l0 220 -60 -2 c-32 -1 -64 -5 -70 -9z"/>
<path d="M3138 729 c-10 -5 -15 -16 -11 -24 3 -9 2 -35 -1 -60 -7 -42 -9 -44
-28 -34 -15 8 -23 8 -32 -1 -8 -9 -5 -16 13 -31 49 -40 76 -12 84 89 6 74 4
78 -25 61z"/>
<path d="M562 708 c3 -22 7 -23 98 -23 91 0 95 1 98 23 3 22 1 22 -98 22 -99
0 -101 0 -98 -22z"/>
<path d="M870 710 c0 -11 5 -20 10 -20 6 0 10 -27 10 -60 0 -53 2 -60 20 -60
18 0 20 7 20 60 0 49 3 61 20 70 34 18 22 30 -30 30 -43 0 -50 -3 -50 -20z"/>
<path d="M990 665 c0 -53 4 -68 22 -85 28 -26 49 -25 76 3 18 19 22 35 22 85
0 55 -2 62 -20 62 -18 0 -20 -7 -20 -61 0 -52 -2 -60 -17 -57 -13 2 -20 18
-27 61 -5 38 -13 57 -22 57 -11 0 -14 -16 -14 -65z"/>
<path d="M1200 644 c0 -74 2 -85 16 -80 9 3 31 6 50 6 27 0 34 4 34 20 0 16
-7 20 -30 20 l-30 0 0 60 c0 53 -2 60 -20 60 -18 0 -20 -7 -20 -86z"/>
<path d="M1330 666 c0 -58 3 -67 26 -85 35 -28 50 -26 79 5 17 18 25 38 25 63
0 51 -10 81 -26 81 -10 0 -14 -16 -14 -60 0 -54 -2 -60 -20 -60 -24 0 -40 35
-40 86 0 24 -5 34 -15 34 -12 0 -15 -14 -15 -64z"/>
<path d="M1512 710 c-34 -32 -38 -65 -11 -105 27 -40 57 -52 88 -36 22 12 37
52 27 76 -3 8 -17 15 -31 15 -28 0 -30 -3 -13 -30 7 -10 9 -22 6 -25 -10 -11
-46 13 -53 35 -9 29 12 50 51 50 36 0 54 17 33 31 -25 15 -75 10 -97 -11z"/>
<path d="M1674 693 c-37 -87 -45 -116 -33 -127 8 -8 15 -5 26 12 19 28 59 29
68 2 7 -23 35 -27 35 -5 0 8 -10 40 -21 72 -35 95 -50 104 -75 46z m36 -45 c0
-16 -3 -19 -11 -11 -6 6 -8 16 -5 22 11 17 16 13 16 -11z"/>
<path d="M1795 648 c3 -44 7 -83 9 -86 11 -10 26 11 26 36 l0 26 35 -34 c39
-37 57 -35 31 5 -15 23 -15 28 -1 47 33 48 4 88 -63 88 l-42 0 5 -82z m79 33
c9 -15 -23 -36 -36 -23 -5 5 -7 15 -4 21 9 13 33 14 40 2z"/>
<path d="M2000 668 c0 -35 -3 -73 -6 -85 -7 -27 8 -29 68 -12 40 10 68 48 68
89 0 36 -44 70 -90 70 l-40 0 0 -62z m78 10 c18 -18 14 -45 -10 -62 -28 -20
-38 -12 -38 28 0 46 21 61 48 34z"/>
<path d="M2157 723 c-2 -5 -5 -41 -6 -80 l-2 -73 51 0 c44 0 51 3 48 18 -2 11
-12 17 -28 17 -32 0 -33 27 -2 35 31 7 29 24 -3 28 -44 6 -22 32 26 32 10 0
19 7 19 15 0 11 -12 15 -49 15 -28 0 -52 -3 -54 -7z"/>
<path d="M2332 713 c2 -10 12 -19 23 -21 18 -2 20 -9 17 -63 -4 -55 -2 -60 15
-57 15 3 19 14 21 62 3 48 7 59 23 63 10 3 19 12 19 19 0 10 -16 14 -61 14
-52 0 -60 -2 -57 -17z"/>
<path d="M2470 658 c0 -76 10 -106 29 -94 6 4 10 10 7 14 -2 4 0 16 3 26 7 17
10 16 30 -12 23 -34 51 -43 51 -17 0 8 -4 15 -9 15 -19 0 -24 42 -7 52 20 11
20 37 0 66 -12 17 -25 22 -60 22 l-44 0 0 -72z m80 17 c0 -21 -30 -31 -40 -14
-11 17 -3 29 21 29 10 0 19 -7 19 -15z"/>
<path d="M2633 671 c-25 -63 -30 -111 -12 -111 6 0 13 9 16 20 4 14 14 20 35
20 21 0 31 -6 35 -20 3 -11 12 -20 20 -20 19 0 13 41 -18 118 -28 70 -48 68
-76 -7z m47 -27 c0 -14 -12 -19 -23 -8 -9 9 4 35 14 28 5 -3 9 -12 9 -20z"/>
<path d="M2766 653 l0 -78 38 -3 c29 -3 44 2 62 19 28 26 31 44 8 53 -13 5
-14 9 -4 21 10 12 10 21 2 40 -10 22 -18 25 -59 25 l-48 0 1 -77z m74 26 c0
-5 -9 -9 -20 -9 -19 0 -26 11 -14 23 8 8 34 -3 34 -14z m0 -59 c0 -11 -6 -20
-14 -20 -21 0 -31 21 -15 31 22 14 29 11 29 -11z"/>
<path d="M2936 676 c-36 -82 -38 -92 -21 -106 14 -11 17 -10 22 8 4 16 13 22
34 22 17 0 32 -6 35 -15 9 -23 34 -18 34 6 0 33 -51 139 -66 139 -8 0 -25 -24
-38 -54z m44 -40 c-14 -14 -24 0 -16 21 6 15 8 15 16 3 6 -9 5 -19 0 -24z"/>
<path d="M3215 705 c-37 -36 -34 -86 6 -119 17 -14 34 -26 39 -26 24 0 63 27
76 51 20 40 18 62 -11 93 -32 34 -77 35 -110 1z m85 -30 c16 -19 9 -45 -16
-62 -19 -12 -24 -12 -38 2 -19 19 -21 61 -3 68 23 10 45 7 57 -8z"/>
<path d="M3457 672 c-7 -67 -1 -102 19 -102 11 0 14 19 14 80 0 61 -3 80 -14
80 -9 0 -15 -19 -19 -58z"/>
<path d="M3530 650 l0 -80 44 0 c70 0 113 54 90 115 -9 23 -57 45 -99 45 l-35
0 0 -80z m81 30 c29 -16 25 -58 -7 -70 -34 -13 -44 -6 -44 34 0 47 13 56 51
36z"/>
<path d="M3702 648 l3 -83 28 1 c63 2 67 4 67 25 0 19 -4 21 -30 16 -25 -5
-30 -3 -30 13 0 13 8 20 25 22 36 4 32 22 -7 29 -35 6 -25 15 22 21 14 2 26
11 28 21 3 14 -5 17 -53 17 l-56 0 3 -82z"/>
<path d="M3855 673 c-15 -32 -27 -69 -28 -82 -2 -30 22 -40 30 -13 3 11 12 23
20 26 19 8 53 -11 53 -29 0 -8 7 -15 15 -15 8 0 15 9 15 20 0 31 -52 150 -66
150 -7 0 -24 -26 -39 -57z m45 -29 c0 -8 -4 -12 -10 -9 -5 3 -10 13 -10 21 0
8 5 12 10 9 6 -3 10 -13 10 -21z"/>
<path d="M3985 653 l3 -78 48 0 c37 0 49 4 49 15 0 9 -12 17 -30 20 -29 5 -30
7 -33 63 -3 48 -6 57 -21 57 -17 0 -18 -8 -16 -77z"/>
<path d="M4150 705 l0 -25 96 0 c93 0 95 1 92 23 -3 21 -8 22 -95 25 l-93 3 0
-26z"/>
</g>
</svg>
